<svg role="img" viewBox="0 0 24 24" fill="#00A1E0" xmlns="http://www.w3.org/2000/svg"><path d="M10.006 5.415a4.195 4.195 0 0 1 3.045-1.306c1.56 0 2.954.9 3.69 2.205.63-.3 1.35-.45 2.1-.45 2.85 0 5.159 2.34 5.159 5.22s-2.31 5.22-5.16 5.22c-.51 0-1.005-.075-1.47-.21-.615 1.05-1.74 1.77-3.03 1.77-1.08 0-2.04-.48-2.7-1.245-.57.345-1.23.54-1.95.54-1.98 0-3.585-1.545-3.72-3.48-.18.03-.36.045-.555.045-1.86 0-3.375-1.545-3.375-3.45S2.55 6.825 4.41 6.825c.69 0 1.335.21 1.875.57a4.158 4.158 0 0 1 3.72-1.98z"/></svg>