<svg role="img" viewBox="0 0 24 24" fill="#F22F46" xmlns="http://www.w3.org/2000/svg"><path d="M12 0C5.381 0 0 5.381 0 12s5.381 12 12 12 12-5.381 12-12S18.619 0 12 0zm0 20.005c-4.419 0-8.005-3.586-8.005-8.005S7.581 3.995 12 3.995s8.005 3.586 8.005 8.005-3.586 8.005-8.005 8.005zm4.192-11.547a1.8 1.8 0 1 1 0 3.601 1.8 1.8 0 0 1 0-3.601zm0 4.15a1.8 1.8 0 1 1 0 3.601 1.8 1.8 0 0 1 0-3.601zm-4.15 0a1.8 1.8 0 1 1 0 3.601 1.8 1.8 0 0 1 0-3.601zm0-4.15a1.8 1.8 0 1 1 0 3.601 1.8 1.8 0 0 1 0-3.601z"/></svg>